<svg clip-rule="evenodd" fill-rule="evenodd" height="20" image-rendering="optimizeQuality" shape-rendering="geometricPrecision" width="106" xmlns="http://www.w3.org/2000/svg" xmlns:xlink="http://www.w3.org/1999/xlink"><linearGradient id="a" x2="0" y2="100%"><stop offset="0" stop-color="#bbb" stop-opacity=".1"/><stop offset="1" stop-opacity=".1"/></linearGradient><mask id="b"><rect clip-rule="evenodd" fill="#fff" fill-rule="evenodd" height="20" image-rendering="optimizeQuality" rx="3" shape-rendering="geometricPrecision" width="106"/></mask><g mask="url(#b)"><path d="m0 0h53v20h-53z" fill="#555"/><path d="m53 0h84v20h-84z" fill="#4c1"/><path d="m0 0h106v20h-106z" fill="url(#a)"/></g><path d="m242 48c86 0 155 69 155 154 0 86-69 155-155 155-85 0-154-69-154-155 0-85 69-154 154-154zm38 184c-17 22-48 26-69 9-21-16-24-47-7-69 18-21 49-25 70-9 21 17 24 48 6 69zm-82 101 59-57c-22 5-45 1-63-14-21-16-30-43-27-68l-53 58s-7-13-9-37l93-73c28-20 66-21 93 0 30 24 36 68 14 101l-68 97c-10 0-30-3-39-7z" fill="#ccc" transform="matrix(.045 0 0 .045 0 1.022727)"/><g fill="#fff" font-family="DejaVu Sans,Verdana,Geneva,sans-serif" font-size="11"><text fill="#010101" fill-opacity=".3" x="22" y="15">build</text><text x="22" y="14">build</text><text fill="#010101" fill-opacity=".3" x="58" y="15">passing</text><text x="58" y="14">passing</text></g></svg>