<svg xmlns="http://www.w3.org/2000/svg" style="shape-rendering: geometricPrecision; image-rendering: optimizeQuality; fill-rule: evenodd; clip-rule: evenodd" width="265" height="122" fill="None"><g font-family="Helvetica,Arial,sans-serif" font-size="12" fill="#777777"><text x="0" y="12" font-weight="bold" fill="#000000">Build history for all branches (last 25 builds)</text><text x="0" y="27">Max build time: 00:00:39</text><text x="0" y="42">Min build time: 00:00:22</text><text x="0" y="57">Avg build time: 00:00:27</text><rect x="0" y="72" height="50" width="5" stroke-width="0" fill="#04b431" /><rect x="8" y="82" height="40" width="5" stroke-width="0" fill="#04b431" /><rect x="16" y="81" height="41" width="5" stroke-width="0" fill="#04b431" /><rect x="24" y="91" height="31" width="5" stroke-width="0" fill="#04b431" /><rect x="32" y="91" height="31" width="5" stroke-width="0" fill="#04b431" /><rect x="40" y="90" height="32" width="5" stroke-width="0" fill="#04b431" /><rect x="48" y="80" height="42" width="5" stroke-width="0" fill="#04b431" /><rect x="56" y="82" height="40" width="5" stroke-width="0" fill="#04b431" /><rect x="64" y="85" height="37" width="5" stroke-width="0" fill="#04b431" /><rect x="72" y="90" height="32" width="5" stroke-width="0" fill="#04b431" /><rect x="80" y="82" height="40" width="5" stroke-width="0" fill="#04b431" /><rect x="88" y="92" height="30" width="5" stroke-width="0" fill="#04b431" /><rect x="96" y="94" height="28" width="5" stroke-width="0" fill="#04b431" /><rect x="104" y="93" height="29" width="5" stroke-width="0" fill="#04b431" /><rect x="112" y="92" height="30" width="5" stroke-width="0" fill="#04b431" /><rect x="120" y="94" height="28" width="5" stroke-width="0" fill="#04b431" /><rect x="128" y="82" height="40" width="5" stroke-width="0" fill="#ff0000" /><rect x="136" y="92" height="30" width="5" stroke-width="0" fill="#ff0000" /><rect x="144" y="94" height="28" width="5" stroke-width="0" fill="#ff0000" /><rect x="152" y="91" height="31" width="5" stroke-width="0" fill="#04b431" /><rect x="160" y="90" height="32" width="5" stroke-width="0" fill="#04b431" /><rect x="168" y="92" height="30" width="5" stroke-width="0" fill="#04b431" /><rect x="176" y="89" height="33" width="5" stroke-width="0" fill="#04b431" /><rect x="184" y="93" height="29" width="5" stroke-width="0" fill="#04b431" /><rect x="192" y="92" height="30" width="5" stroke-width="0" fill="#04b431" /></g></svg>